<svg width="25" height="21" viewBox="0 0 25 21" xmlns="http://www.w3.org/2000/svg"><g fill-rule="evenodd"><path d="M2.618 8c-.551 0-1 .45-1 1v3c0 .55.449 1 1 1h3.5c.133 0 .26.05.354.15l6.146 6.14V1.71L6.472 7.86a.511.511 0 0 1-.354.14h-3.5zm10.5 13a.516.516 0 0 1-.353-.14L5.911 14H2.618c-1.103 0-2-.899-2-2V9c0-1.1.897-2 2-2h3.293L12.765.15a.484.484 0 0 1 .545-.11c.187.08.308.26.308.46v20c0 .2-.121.39-.308.46l-.192.04zM20.618 19a.494.494 0 0 1-.329-.87c2.116-1.85 3.329-4.63 3.329-7.63 0-2.99-1.213-5.77-3.329-7.62a.505.505 0 0 1-.047-.71.49.49 0 0 1 .705-.04c2.333 2.03 3.671 5.09 3.671 8.37 0 3.291-1.338 6.34-3.671 8.38a.508.508 0 0 1-.329.12"/><path d="M18.119 17a.497.497 0 0 1-.32-.88c1.713-1.42 2.819-3.63 2.819-5.62 0-2-1.106-4.2-2.818-5.61a.508.508 0 0 1-.068-.71.5.5 0 0 1 .705-.06c1.932 1.59 3.181 4.1 3.181 6.38 0 2.28-1.248 4.791-3.181 6.39a.535.535 0 0 1-.318.11"/><path d="M16.119 14.5a.506.506 0 0 1-.405-.2.5.5 0 0 1 .11-.7c.819-.6 1.794-1.62 1.794-3.1 0-1.479-.975-2.5-1.794-3.09a.503.503 0 0 1-.11-.7.487.487 0 0 1 .698-.11c1.423 1.03 2.206 2.421 2.206 3.9 0 1.49-.784 2.87-2.206 3.91a.523.523 0 0 1-.293.09"/></g></svg>
